<svg width="26" height="26" viewBox="0 0 26 26" fill="none" xmlns="http://www.w3.org/2000/svg">
<path d="M25.1087 1.40115C25.1087 0.672554 24.4361 0 23.7075 0H1.34511C0.616508 0 0 0.672554 0 1.40115V23.7636C0 24.4922 0.616508 25.1087 1.34511 25.1087H13.395V15.4127H10.0883V11.6016H13.395V8.79925C13.395 5.60462 15.3567 3.81114 18.2711 3.81114C19.6162 3.81114 20.8492 3.92323 21.1855 3.97928V7.34205H19.1678C17.5985 7.34205 17.3183 8.1267 17.3183 9.19158V11.6016H21.0734L20.569 15.4127H17.3183V25.1087H23.7075C24.4361 25.1087 25.1087 24.4922 25.1087 23.7636V1.40115Z" fill="#333333"/>
</svg>
