<svg width="26" height="26" viewBox="0 0 26 26" fill="none" xmlns="http://www.w3.org/2000/svg">
<path fill-rule="evenodd" clip-rule="evenodd" d="M12.5542 0C5.62149 0 0 5.76305 0 12.8738C0 18.5604 3.597 23.3854 8.58683 25.0878C9.21458 25.2061 9.44371 24.8086 9.44371 24.4675C9.44371 24.1617 9.43271 23.3524 9.42644 22.2783C5.93379 23.0563 5.19699 20.5525 5.19699 20.5525C4.62652 19.0657 3.80338 18.6698 3.80338 18.6698C2.66323 17.8709 3.88969 17.887 3.88969 17.887C5.14911 17.9779 5.81217 19.2137 5.81217 19.2137C6.9327 21.1808 8.75084 20.6128 9.46647 20.283C9.58025 19.451 9.90511 18.8838 10.2637 18.562C7.47572 18.237 4.5449 17.1331 4.5449 12.2004C4.5449 10.7948 5.03377 9.64587 5.83729 8.74556C5.70782 8.41972 5.27703 7.11151 5.95971 5.33907C5.95971 5.33907 7.01432 4.99309 9.41232 6.65853C10.4144 6.37291 11.4878 6.2305 12.5558 6.22487C13.6222 6.2305 14.6964 6.37291 15.6992 6.65853C18.0957 4.99309 19.148 5.33907 19.148 5.33907C19.833 7.11151 19.4022 8.41972 19.2727 8.74556C20.0778 9.64587 20.5635 10.7948 20.5635 12.2004C20.5635 17.1452 17.628 18.2337 14.8314 18.5523C15.2818 18.9498 15.6836 19.7351 15.6836 20.9363C15.6836 22.6572 15.6679 24.0451 15.6679 24.4675C15.6679 24.8118 15.8939 25.2125 16.531 25.0862C21.5161 23.3805 25.11 18.5588 25.11 12.8738C25.11 5.76305 19.4885 0 12.5542 0Z" fill="#333333"/>
</svg>
