<svg width="26" height="26" viewBox="0 0 26 26" fill="none" xmlns="http://www.w3.org/2000/svg">
<path d="M13.1412 6.10909C9.55425 6.10909 6.6959 9.02349 6.6959 12.5544C6.6959 16.1414 9.55425 18.9997 13.1412 18.9997C16.6721 18.9997 19.5865 16.1414 19.5865 12.5544C19.5865 9.02349 16.6721 6.10909 13.1412 6.10909ZM13.1412 16.7579C10.8433 16.7579 8.93774 14.9083 8.93774 12.5544C8.93774 10.2565 10.7873 8.40698 13.1412 8.40698C15.4391 8.40698 17.2886 10.2565 17.2886 12.5544C17.2886 14.9083 15.4391 16.7579 13.1412 16.7579ZM21.324 5.8849C21.324 5.04421 20.6514 4.37166 19.8107 4.37166C18.97 4.37166 18.2975 5.04421 18.2975 5.8849C18.2975 6.7256 18.97 7.39815 19.8107 7.39815C20.6514 7.39815 21.324 6.7256 21.324 5.8849ZM25.5835 7.39815C25.4714 5.38049 25.023 3.58701 23.5658 2.12981C22.1086 0.672607 20.3151 0.224238 18.2975 0.112145C16.2237 5.30779e-05 10.0026 5.30779e-05 7.92891 0.112145C5.91125 0.224238 4.17382 0.672607 2.66057 2.12981C1.20337 3.58701 0.755 5.38049 0.642907 7.39815C0.530815 9.47186 0.530815 15.693 0.642907 17.7667C0.755 19.7844 1.20337 21.5218 2.66057 23.035C4.17382 24.4922 5.91125 24.9406 7.92891 25.0527C10.0026 25.1648 16.2237 25.1648 18.2975 25.0527C20.3151 24.9406 22.1086 24.4922 23.5658 23.035C25.023 21.5218 25.4714 19.7844 25.5835 17.7667C25.6956 15.693 25.6956 9.47186 25.5835 7.39815ZM22.8932 19.9525C22.5009 21.0734 21.6042 21.9141 20.5393 22.3625C18.8579 23.035 14.9347 22.8669 13.1412 22.8669C11.2917 22.8669 7.36845 23.035 5.74311 22.3625C4.62219 21.9141 3.78149 21.0734 3.33312 19.9525C2.66057 18.3272 2.82871 14.4039 2.82871 12.5544C2.82871 10.7609 2.66057 6.83769 3.33312 5.1563C3.78149 4.09143 4.62219 3.25073 5.74311 2.80236C7.36845 2.12981 11.2917 2.29795 13.1412 2.29795C14.9347 2.29795 18.8579 2.12981 20.5393 2.80236C21.6042 3.19469 22.4449 4.09143 22.8932 5.1563C23.5658 6.83769 23.3977 10.7609 23.3977 12.5544C23.3977 14.4039 23.5658 18.3272 22.8932 19.9525Z" fill="#333333"/>
</svg>
