<svg width="26" height="26" viewBox="0 0 26 26" fill="none" xmlns="http://www.w3.org/2000/svg">
<path d="M23.9021 0H2.32435C1.37156 0 0.586914 0.840693 0.586914 1.84952V23.3152C0.586914 24.324 1.37156 25.1087 2.32435 25.1087H23.9021C24.8549 25.1087 25.6956 24.324 25.6956 23.3152V1.84952C25.6956 0.840693 24.8549 0 23.9021 0ZM8.15315 21.5217H4.4541V9.5839H8.15315V21.5217ZM6.30363 7.90251C5.07061 7.90251 4.11782 6.94973 4.11782 5.77276C4.11782 4.59579 5.07061 3.58696 6.30363 3.58696C7.4806 3.58696 8.43338 4.59579 8.43338 5.77276C8.43338 6.94973 7.4806 7.90251 6.30363 7.90251ZM22.1087 21.5217H18.3536V15.6929C18.3536 14.3478 18.3536 12.5543 16.448 12.5543C14.4864 12.5543 14.2061 14.0676 14.2061 15.6369V21.5217H10.5071V9.5839H14.038V11.2092H14.094C14.5985 10.2565 15.8315 9.24762 17.625 9.24762C21.3801 9.24762 22.1087 11.7697 22.1087 14.9643V21.5217Z" fill="#333333"/>
</svg>
