<svg width="29" height="25" viewBox="0 0 29 25" fill="none" xmlns="http://www.w3.org/2000/svg">
<path d="M26.0467 6.72564C27.1677 5.88495 28.1765 4.87611 28.9611 3.69914C27.9523 4.14751 26.7753 4.48379 25.5984 4.59588C26.8314 3.86728 27.7281 2.74636 28.1765 1.3452C27.0556 2.01776 25.7665 2.52217 24.4774 2.80241C23.3565 1.62544 21.8433 0.952881 20.1619 0.952881C16.9112 0.952881 14.277 3.58705 14.277 6.83773C14.277 7.2861 14.3331 7.73447 14.4452 8.18284C9.56915 7.90261 5.19755 5.54867 2.28315 2.01776C1.77873 2.85845 1.4985 3.86728 1.4985 4.98821C1.4985 7.00587 2.50733 8.79935 4.13267 9.86423C3.17989 9.80818 2.2271 9.584 1.44246 9.13563V9.19167C1.44246 12.05 3.46012 14.404 6.15034 14.9644C5.70197 15.0765 5.14151 15.1886 4.63709 15.1886C4.24477 15.1886 3.90849 15.1326 3.51617 15.0765C4.24477 17.4305 6.43057 19.1118 9.00869 19.1679C6.99103 20.7372 4.46895 21.69 1.72269 21.69C1.21827 21.69 0.769903 21.6339 0.321533 21.5779C2.89966 23.2593 5.9822 24.2121 9.34497 24.2121C20.1619 24.2121 26.0467 15.3007 26.0467 7.51029C26.0467 7.23005 26.0467 7.00587 26.0467 6.72564Z" fill="#333333"/>
</svg>
